<svg xmlns="http://www.w3.org/2000/svg" aria-hidden="true" style="position:absolute;width:0;height:0;overflow:hidden">
  <defs>
    <symbol id="icon-triangle" viewBox="0 0 28 32">
      <path d="M26.088 12.891c2.441 1.354 2.441 4.864 0 6.218L4.933 30.848c-2.37 1.315-5.281-.399-5.281-3.109V4.262c0-2.71 2.911-4.424 5.281-3.109l21.155 11.739z"/>
    </symbol>
     <symbol id="icon-cursor" viewBox="0 0 21 32">
      <path d="M19.042 18.067 1.832.857a1.003 1.003 0 0 0-.756-.319C.942.538.79.572.673.622a1.079 1.079 0 0 0-.672.992v25.277c0 .437.269.824.672.992.118.05.269.084.403.084.286 0 .555-.118.756-.319l5.244-5.244 3.21 7.597a1.08 1.08 0 0 0 1.412.571l2.975-1.261a1.08 1.08 0 0 0 .571-1.412l-3.378-8h6.42c.437 0 .824-.269.992-.672a1.038 1.038 0 0 0-.235-1.16z"/>
    </symbol>
    <symbol id="icon-wave" viewBox="0 0 41 32">
      <path d="m21.673 12.898 2.674 1.245 3.98-1.184v-2.775c0-4.714-3.98-8.49-8.735-8.49-4.735 0-8.735 3.755-8.735 8.429v12.653c0 1.163-.939 2.082-2.082 2.082s-2.082-.918-2.082-2.082v-5.347H-.001v5.429a8.753 8.753 0 0 0 8.755 8.755c4.796 0 8.755-3.857 8.755-8.633V10.49c0-1.143.939-2.082 2.082-2.082s2.082.939 2.082 2.082v2.408zm10.817 4.531v5.612c0 1.143-.939 2.061-2.082 2.061s-2.082-.918-2.082-2.061v-5.51l-3.98 1.184-2.674-1.245v5.469c0 4.796 3.939 8.674 8.755 8.674a8.753 8.753 0 0 0 8.755-8.755v-5.429h-6.694z"/>
    </symbol>
    <symbol id="icon-heart" viewBox="0 0 34 32">
      <path d="M17.067 30.172c.305 0 .61-.114.838-.343l11.867-11.428c.171-.171 4.362-4 4.362-8.571 0-5.581-3.41-8.914-9.105-8.914-3.333 0-6.457 2.629-7.962 4.114C15.562 3.544 12.438.916 9.105.916 3.41.916 0 4.249 0 9.83c0 4.571 4.191 8.4 4.343 8.533L16.229 29.83c.229.229.533.343.838.343z"/>
    </symbol>
    <symbol id="icon-clock" viewBox="0 0 26 32">
      <path d="M23.664 2.689h1.614a.531.531 0 0 0 .538-.538V1.075a.53.53 0 0 0-.538-.538H.538A.53.53 0 0 0 0 1.075v1.076a.53.53 0 0 0 .538.538h1.613c0 6.219 2.975 10.723 6.269 12.908-3.294 2.185-6.269 6.689-6.269 12.908H.538a.53.53 0 0 0-.538.538v1.076c0 .302.235.538.538.538h24.74a.531.531 0 0 0 .538-.538v-1.076a.531.531 0 0 0-.538-.538h-1.614c0-6.219-2.975-10.723-6.269-12.908 3.294-2.185 6.269-6.689 6.269-12.908zm-2.151 0c0 2.454-.555 4.622-1.429 6.454H5.731c-.874-1.832-1.429-4-1.429-6.454h17.21zm-.958 20.437H5.261c1.244-3.244 3.479-5.546 5.714-6.454h3.866c2.235.908 4.471 3.21 5.714 6.454z"/>
    </symbol>
    <symbol id="icon-tick" viewBox="0 0 45 32">
      <path d="M42.17.638a2.108 2.108 0 0 0-3.022 0L13.542 26.74 3.699 16.707c-.835-.851-2.188-.851-3.023 0s-.835 2.23 0 3.081L12.03 31.362a2.11 2.11 0 0 0 3.023 0L42.17 3.719a2.208 2.208 0 0 0 0-3.081z"/>
    </symbol>
    <symbol id="icon-stars" viewBox="0 0 188 32">
      <path fill="#f3cd03" d="M32.404 11.487c-.102-.296-.29-.556-.541-.749s-.553-.308-.869-.333l-9.261-.725L17.725.944c-.128-.281-.335-.52-.598-.688a1.638 1.638 0 0 0-1.764-.001 1.6 1.6 0 0 0-.599.687l-4.008 8.737-9.261.725c-.311.024-.609.136-.857.323s-.437.439-.543.728a1.577 1.577 0 0 0 .394 1.689l6.844 6.57-2.421 10.321c-.074.312-.05.639.068.938s.324.556.592.739a1.64 1.64 0 0 0 1.826.013l8.845-5.807 8.845 5.807a1.646 1.646 0 0 0 1.857-.04c.268-.193.47-.462.579-.771s.118-.644.028-.958l-2.971-10.238 7.369-6.53c.482-.429.66-1.097.452-1.704zM71.393 11.487c-.102-.296-.29-.556-.541-.749s-.553-.308-.87-.333l-9.261-.725L56.713.944c-.128-.281-.335-.52-.598-.688a1.638 1.638 0 0 0-1.764-.001 1.6 1.6 0 0 0-.599.687l-4.008 8.737-9.261.725c-.311.024-.609.136-.857.323s-.436.439-.543.728-.125.602-.055.902c.07.3.226.573.449.787l6.844 6.57L43.9 30.035c-.073.312-.05.639.068.938a1.616 1.616 0 0 0 1.502 1.022c.326.002.644-.092.915-.27l8.846-5.807 8.845 5.807a1.646 1.646 0 0 0 1.857-.04c.268-.193.47-.462.579-.771s.118-.644.028-.958l-2.971-10.238 7.369-6.53c.483-.429.66-1.097.452-1.704zM110.376 11.487c-.102-.296-.29-.556-.541-.749s-.553-.308-.87-.333l-9.261-.725L95.696.944c-.128-.281-.335-.52-.598-.688a1.638 1.638 0 0 0-1.764-.001 1.6 1.6 0 0 0-.599.687l-4.008 8.737-9.261.725c-.311.024-.609.136-.857.323s-.437.439-.543.728a1.577 1.577 0 0 0 .394 1.689l6.844 6.57-2.42 10.321c-.073.312-.05.639.068.938s.324.556.592.739a1.64 1.64 0 0 0 1.826.013l8.846-5.807 8.845 5.807a1.646 1.646 0 0 0 1.857-.04 1.583 1.583 0 0 0 .607-1.729l-2.971-10.238 7.369-6.53c.482-.429.66-1.097.452-1.704zM149.369 11.487c-.102-.296-.29-.556-.541-.749s-.553-.308-.869-.333l-9.261-.725L134.69.944c-.128-.281-.335-.52-.598-.688a1.638 1.638 0 0 0-1.764-.001 1.6 1.6 0 0 0-.599.687l-4.008 8.737-9.261.725c-.311.024-.609.136-.857.323s-.437.439-.543.728a1.577 1.577 0 0 0 .394 1.689l6.844 6.57-2.42 10.321c-.074.312-.05.639.068.938s.324.556.592.739a1.64 1.64 0 0 0 1.826.013l8.845-5.807 8.845 5.807a1.646 1.646 0 0 0 1.857-.04c.268-.193.47-.462.579-.771.109-.309.118-.644.028-.958l-2.971-10.238 7.369-6.53c.482-.429.66-1.097.452-1.704zM163.291 19.716l-2.42 10.321c-.075.313-.052.64.065.94s.323.558.591.74a1.635 1.635 0 0 0 1.828.01l8.845-5.807 8.846 5.807a1.644 1.644 0 0 0 1.858-.04c.268-.193.469-.462.578-.771s.119-.644.028-.958l-2.971-10.238 7.369-6.53a1.587 1.587 0 0 0-.088-2.451 1.632 1.632 0 0 0-.869-.332l-9.262-.726-4.008-8.736c-.128-.281-.335-.52-.598-.688a1.638 1.638 0 0 0-1.764 0 1.6 1.6 0 0 0-.598.688l-4.008 8.736-9.261.725c-.311.024-.609.136-.857.323s-.437.439-.543.728a1.586 1.586 0 0 0 .394 1.689l6.845 6.57zm4.634-6.92c.29-.023.568-.121.806-.286s.426-.39.545-.651l2.923-6.368 2.923 6.368a1.627 1.627 0 0 0 1.351.937l6.453.504-5.314 4.709a1.587 1.587 0 0 0-.476 1.628l2.035 7.014-6.069-3.985a1.634 1.634 0 0 0-1.802 0l-6.342 4.164 1.706-7.272a1.579 1.579 0 0 0-.448-1.504l-4.935-4.738 6.644-.521z" style="fill:var(--color1, #f3cd03)"/>
    </symbol>


    <!-- <svg id="icon-phone" width="16" height="24" viewBox="0 0 16 24" fill="none" xmlns="http://www.w3.org/2000/svg">
        <path d="M13.8182 0H2.18182C0.977273 0 0 1.00781 0 2.25V21.75C0 22.9922 0.977273 24 2.18182 24H13.8182C15.0227 24 16 22.9922 16 21.75V2.25C16 1.00781 15.0227 0 13.8182 0ZM10.1818 20.9578C10.1818 21.4125 9.85455 21.75 9.45455 21.75H6.50455C6.14545 21.75 5.81818 21.4125 5.81818 21C5.81818 20.5875 6.14545 20.25 6.54545 20.25H9.45455C9.85455 20.25 10.1818 20.5875 10.1818 20.9578ZM13.0909 18H2.90909V3H13.0909V18Z" fill="#02897A" />
    </svg>
    <svg id="icon-instagram" width="24" height="24" viewBox="0 0 24 24" fill="none" xmlns="http://www.w3.org/2000/svg">
        <path d="M17 2H7C4.23858 2 2 4.23858 2 7V17C2 19.7614 4.23858 22 7 22H17C19.7614 22 22 19.7614 22 17V7C22 4.23858 19.7614 2 17 2Z" stroke="#02897A" stroke-width="2" stroke-linecap="round" stroke-linejoin="round" />
        <path d="M16 11.3698C16.1234 12.2021 15.9812 13.052 15.5937 13.7988C15.2062 14.5456 14.5931 15.1512 13.8416 15.5295C13.0901 15.9077 12.2384 16.0394 11.4077 15.9057C10.5771 15.7721 9.80971 15.3799 9.21479 14.785C8.61987 14.1901 8.22768 13.4227 8.09402 12.592C7.96035 11.7614 8.09202 10.9097 8.47028 10.1582C8.84854 9.40667 9.45414 8.79355 10.2009 8.40605C10.9477 8.01856 11.7977 7.8764 12.63 7.99981C13.4789 8.1257 14.2648 8.52128 14.8716 9.12812C15.4785 9.73496 15.8741 10.5209 16 11.3698Z" stroke="#02897A" stroke-width="2" stroke-linecap="round" stroke-linejoin="round" />
        <path d="M17.5 6.5H17.51" stroke="#02897A" stroke-width="2" stroke-linecap="round" stroke-linejoin="round" />
    </svg>
    <svg id="icon-facebook" width="24" height="24" viewBox="0 0 24 24" fill="none" xmlns="http://www.w3.org/2000/svg">
        <path d="M18 2H15C13.6739 2 12.4021 2.52678 11.4645 3.46447C10.5268 4.40215 10 5.67392 10 7V10H7V14H10V22H14V14H17L18 10H14V7C14 6.73478 14.1054 6.48043 14.2929 6.29289C14.4804 6.10536 14.7348 6 15 6H18V2Z" stroke="#02897A" stroke-width="2" stroke-linecap="round" stroke-linejoin="round" />
    </svg>
    <svg id="icon-twitter" width="24" height="24" viewBox="0 0 24 24" fill="none" xmlns="http://www.w3.org/2000/svg">
        <path d="M23 3.01006C22.0424 3.68553 20.9821 4.20217 19.86 4.54006C19.2577 3.84757 18.4573 3.35675 17.567 3.13398C16.6767 2.91122 15.7395 2.96725 14.8821 3.29451C14.0247 3.62177 13.2884 4.20446 12.773 4.96377C12.2575 5.72309 11.9877 6.62239 12 7.54006V8.54006C10.2426 8.58562 8.50127 8.19587 6.93101 7.4055C5.36074 6.61513 4.01032 5.44869 3 4.01006C3 4.01006 -1 13.0101 8 17.0101C5.94053 18.408 3.48716 19.109 1 19.0101C10 24.0101 21 19.0101 21 7.51006C20.9991 7.23151 20.9723 6.95365 20.92 6.68006C21.9406 5.67355 22.6608 4.40277 23 3.01006V3.01006Z" stroke="#02897A" stroke-width="2" stroke-linecap="round" stroke-linejoin="round" />
    </svg> -->
  </defs>
</svg>